<svg width="22" height="22" viewBox="0 0 33 36" fill="none" xmlns="http://www.w3.org/2000/svg">
<path d="M31.25 14.5833H1.25M22.9167 1.25V7.91667M9.58333 1.25V7.91667M13.75 21.25L16.25 19.5833V27.9167M14.1667 27.9167H18.3333M9.25 34.5833H23.25C26.0503 34.5833 27.4504 34.5833 28.52 34.0384C29.4608 33.559 30.2257 32.7941 30.705 31.8533C31.25 30.7837 31.25 29.3836 31.25 26.5833V12.5833C31.25 9.78307 31.25 8.38294 30.705 7.31338C30.2257 6.37257 29.4608 5.60767 28.52 5.1283C27.4504 4.58333 26.0503 4.58333 23.25 4.58333H9.25C6.44974 4.58333 5.04961 4.58333 3.98005 5.1283C3.03924 5.60767 2.27433 6.37257 1.79497 7.31338C1.25 8.38294 1.25 9.78307 1.25 12.5833V26.5833C1.25 29.3836 1.25 30.7837 1.79497 31.8533C2.27433 32.7941 3.03924 33.559 3.98005 34.0384C5.04961 34.5833 6.44974 34.5833 9.25 34.5833Z" stroke="#717680" stroke-width="2.5" stroke-linecap="round" stroke-linejoin="round"/>
</svg>