<svg
  xmlns="http://www.w3.org/2000/svg"
  viewBox="0 -2 20 20"
  width="24"
  height="24"
  fill="none"
  preserveAspectRatio="xMidYMid meet"
>
  <path
    d="M0.75 3.75L12.75 3.75
       M12.75 3.75C12.75 5.40685 14.0931 6.75 15.75 6.75
       C17.4069 6.75 18.75 5.40685 18.75 3.75
       C18.75 2.09315 17.4069 0.75 15.75 0.75
       C14.0931 0.75 12.75 2.09315 12.75 3.75
       Z
       M6.75 11.75L18.75 11.75
       M6.75 11.75C6.75 13.4069 5.40685 14.75 3.75 14.75
       C2.09315 14.75 0.75 13.4069 0.75 11.75
       C0.75 10.0931 2.09315 8.75 3.75 8.75
       C5.40685 8.75 6.75 10.0931 6.75 11.75
       Z"
    stroke="#181D27"
    stroke-width="1.5"
    stroke-linecap="round"
    stroke-linejoin="round"
  />
</svg>
