<svg width="36" height="36" viewBox="0 0 36 36" fill="none" xmlns="http://www.w3.org/2000/svg">
<path d="M11 21C11 21 13.5 24.3333 17.6667 24.3333C21.8333 24.3333 24.3333 21 24.3333 21M22.6667 12.6667H22.6833M12.6667 12.6667H12.6833M34.3333 17.6667C34.3333 26.8714 26.8714 34.3333 17.6667 34.3333C8.46192 34.3333 1 26.8714 1 17.6667C1 8.46192 8.46192 1 17.6667 1C26.8714 1 34.3333 8.46192 34.3333 17.6667ZM23.5 12.6667C23.5 13.1269 23.1269 13.5 22.6667 13.5C22.2064 13.5 21.8333 13.1269 21.8333 12.6667C21.8333 12.2064 22.2064 11.8333 22.6667 11.8333C23.1269 11.8333 23.5 12.2064 23.5 12.6667ZM13.5 12.6667C13.5 13.1269 13.1269 13.5 12.6667 13.5C12.2064 13.5 11.8333 13.1269 11.8333 12.6667C11.8333 12.2064 12.2064 11.8333 12.6667 11.8333C13.1269 11.8333 13.5 12.2064 13.5 12.6667Z" stroke="#6941C6" stroke-width="2" stroke-linecap="round" stroke-linejoin="round"/>
</svg>
