<svg width="22" height="22" viewBox="0 0 22 22" fill="none" xmlns="http://www.w3.org/2000/svg">
<path d="M7 7.00012H7.01M1 4.20012L1 8.67464C1 9.16382 1 9.40841 1.05526 9.63858C1.10425 9.84266 1.18506 10.0377 1.29472 10.2167C1.4184 10.4185 1.59135 10.5915 1.93726 10.9374L9.60589 18.606C10.7939 19.7941 11.388 20.3881 12.0729 20.6106C12.6755 20.8064 13.3245 20.8064 13.927 20.6106C14.612 20.3881 15.2061 19.7941 16.3941 18.606L18.6059 16.3942C19.7939 15.2062 20.388 14.6122 20.6105 13.9272C20.8063 13.3246 20.8063 12.6756 20.6105 12.0731C20.388 11.3881 19.7939 10.7941 18.6059 9.60601L10.9373 1.93738C10.5914 1.59148 10.4184 1.41853 10.2166 1.29484C10.0376 1.18518 9.84253 1.10438 9.63846 1.05538C9.40829 1.00012 9.1637 1.00012 8.67452 1.00012L4.2 1.00012C3.0799 1.00012 2.51984 1.00012 2.09202 1.21811C1.7157 1.40986 1.40973 1.71582 1.21799 2.09214C1 2.51996 1 3.08002 1 4.20012ZM7.5 7.00012C7.5 7.27626 7.27614 7.50012 7 7.50012C6.72386 7.50012 6.5 7.27626 6.5 7.00012C6.5 6.72398 6.72386 6.50012 7 6.50012C7.27614 6.50012 7.5 6.72398 7.5 7.00012Z" stroke="#717680" stroke-width="2" stroke-linecap="round" stroke-linejoin="round"/>
</svg>
