<svg
  xmlns="http://www.w3.org/2000/svg"
  viewBox="0 0 24 24"
  width="24"
  height="24"
  fill="none"
>
  <g transform="translate(1 3)">
    <path
      d="M8.75 4.75V3.75M8.75 9.25V8.25M8.75 13.75V12.75M3.95 0.75H17.55C18.6701 0.75 19.2302 0.75 19.658 0.967987C20.0343 1.15973 20.3403 1.46569 20.532 1.84202C20.75 2.26984 20.75 2.82989 20.75 3.95V5.25C18.817 5.25 17.25 6.817 17.25 8.75C17.25 10.683 18.817 12.25 20.75 12.25V13.55C20.75 14.6701 20.75 15.2302 20.532 15.658C20.3403 16.0343 20.0343 16.3403 19.658 16.532C19.2302 16.75 18.6701 16.75 17.55 16.75H3.95C2.8299 16.75 2.26984 16.75 1.84202 16.532C1.46569 16.3403 1.15973 16.0343 0.967987 15.658C0.75 15.2302 0.75 14.6701 0.75 13.55V12.25C2.683 12.25 4.25 10.683 4.25 8.75C4.25 6.817 2.683 5.25 0.75 5.25V3.95C0.75 2.82989 0.75 2.26984 0.967987 1.84202C1.15973 1.46569 1.46569 1.15973 1.84202 0.967987C2.26984 0.75 2.82989 0.75 3.95 0.75Z"
      stroke="#181D27"
      stroke-width="1.5"
      stroke-linecap="round"
      stroke-linejoin="round"
    />
  </g>
</svg>
