<svg width="20" height="17" viewBox="0 0 20 17" fill="none" xmlns="http://www.w3.org/2000/svg">
<path d="M13.3335 11.6646L10.0002 8.33126M10.0002 8.33126L6.66688 11.6646M10.0002 8.33126V15.8313M16.9919 13.6563C17.8047 13.2132 18.4467 12.512 18.8168 11.6635C19.1868 10.8149 19.2637 9.86729 19.0354 8.97017C18.807 8.07306 18.2865 7.27752 17.5558 6.70914C16.8251 6.14075 15.9259 5.83188 15.0002 5.83126H13.9502C13.698 4.85563 13.2278 3.94988 12.5752 3.18209C11.9225 2.41431 11.1042 1.80447 10.182 1.39844C9.25967 0.992402 8.25734 0.800731 7.25031 0.837834C6.24328 0.874937 5.25777 1.13985 4.36786 1.61265C3.47795 2.08546 2.7068 2.75385 2.1124 3.56758C1.51799 4.38132 1.11579 5.31921 0.936028 6.31076C0.756269 7.30231 0.803632 8.32171 1.07456 9.29231C1.34548 10.2629 1.83291 11.1595 2.50021 11.9146" stroke="#717680" stroke-width="1.66667" stroke-linecap="round" stroke-linejoin="round"/>
</svg>
