<svg width="17" height="18" viewBox="0 0 17 18" fill="none" xmlns="http://www.w3.org/2000/svg">
<path d="M15.5996 7.26664H0.599609M11.4329 0.599976V3.93331M4.76628 0.599976V3.93331M6.84961 10.6L8.09961 9.76664V13.9333M7.05794 13.9333H9.14128M4.59961 17.2666H11.5996C12.9997 17.2666 13.6998 17.2666 14.2346 16.9942C14.705 16.7545 15.0874 16.372 15.3271 15.9016C15.5996 15.3668 15.5996 14.6668 15.5996 13.2666V6.26664C15.5996 4.86651 15.5996 4.16645 15.3271 3.63167C15.0874 3.16126 14.705 2.77881 14.2346 2.53913C13.6998 2.26664 12.9997 2.26664 11.5996 2.26664H4.59961C3.19948 2.26664 2.49941 2.26664 1.96463 2.53913C1.49423 2.77881 1.11178 3.16126 0.872093 3.63167C0.599609 4.16645 0.599609 4.86651 0.599609 6.26664V13.2666C0.599609 14.6668 0.599609 15.3668 0.872093 15.9016C1.11178 16.372 1.49423 16.7545 1.96463 16.9942C2.49941 17.2666 3.19948 17.2666 4.59961 17.2666Z" stroke="#7D7F8D" stroke-width="1.2" stroke-linecap="round" stroke-linejoin="round"/>
</svg>
