<svg width="15" height="12" viewBox="0 0 15 12" fill="none" xmlns="http://www.w3.org/2000/svg">
<path d="M13.5996 9.93334L9.17104 5.93334M5.36151 5.93334L0.932966 9.93334M0.599609 2.60001L6.04289 6.4103C6.48367 6.71885 6.70406 6.87312 6.94378 6.93288C7.15554 6.98566 7.37701 6.98566 7.58877 6.93288C7.82849 6.87312 8.04888 6.71885 8.48966 6.4103L13.9329 2.60001M3.79961 11.2667H10.7329C11.853 11.2667 12.4131 11.2667 12.8409 11.0487C13.2172 10.8569 13.5232 10.551 13.715 10.1747C13.9329 9.74683 13.9329 9.18678 13.9329 8.06667V3.80001C13.9329 2.6799 13.9329 2.11985 13.715 1.69203C13.5232 1.3157 13.2172 1.00974 12.8409 0.817993C12.4131 0.600006 11.853 0.600006 10.7329 0.600006H3.79961C2.6795 0.600006 2.11945 0.600006 1.69163 0.817993C1.3153 1.00974 1.00934 1.3157 0.817596 1.69203C0.599609 2.11985 0.599609 2.6799 0.599609 3.80001V8.06667C0.599609 9.18678 0.599609 9.74683 0.817596 10.1747C1.00934 10.551 1.3153 10.8569 1.69163 11.0487C2.11945 11.2667 2.6795 11.2667 3.79961 11.2667Z" stroke="currentColor" stroke-width="1.2" stroke-linecap="round" stroke-linejoin="round"/>
</svg>
