<svg width="20" height="20" viewBox="0 0 20 20" fill="none" xmlns="http://www.w3.org/2000/svg">
<path d="M10.0013 10.8333C10.4615 10.8333 10.8346 10.4602 10.8346 10C10.8346 9.53977 10.4615 9.16668 10.0013 9.16668C9.54106 9.16668 9.16797 9.53977 9.16797 10C9.16797 10.4602 9.54106 10.8333 10.0013 10.8333Z" stroke="#121633" stroke-linecap="round" stroke-linejoin="round"/>
<path d="M10.0013 5.00001C10.4615 5.00001 10.8346 4.62691 10.8346 4.16668C10.8346 3.70644 10.4615 3.33334 10.0013 3.33334C9.54106 3.33334 9.16797 3.70644 9.16797 4.16668C9.16797 4.62691 9.54106 5.00001 10.0013 5.00001Z" stroke="#121633" stroke-linecap="round" stroke-linejoin="round"/>
<path d="M10.0013 16.6667C10.4615 16.6667 10.8346 16.2936 10.8346 15.8333C10.8346 15.3731 10.4615 15 10.0013 15C9.54106 15 9.16797 15.3731 9.16797 15.8333C9.16797 16.2936 9.54106 16.6667 10.0013 16.6667Z" stroke="#121633" stroke-linecap="round" stroke-linejoin="round"/>
<circle cx="10.0013" cy="4.16668" r="0.833333" fill="#121633"/>
<circle cx="10.0013" cy="9.99999" r="0.833333" fill="#121633"/>
<circle cx="10.0013" cy="15.8333" r="0.833333" fill="#121633"/>
</svg>
