<svg width="42" height="52" viewBox="0 0 42 52" fill="none" xmlns="http://www.w3.org/2000/svg">
<path d="M1.59961 7.25442C1.59961 4.66465 1.59961 3.36977 2.13958 2.65598C2.60999 2.03414 3.329 1.64934 4.10734 1.60287C5.00077 1.54952 6.07818 2.26779 8.233 3.70434L36.2745 22.3987C38.055 23.5857 38.9452 24.1792 39.2555 24.9272C39.5267 25.5812 39.5267 26.3163 39.2555 26.9703C38.9452 27.7183 38.055 28.3118 36.2745 29.4988L8.23299 48.1932C6.07818 49.6297 5.00077 50.348 4.10734 50.2946C3.329 50.2482 2.60999 49.8634 2.13958 49.2415C1.59961 48.5277 1.59961 47.2328 1.59961 44.6431V7.25442Z" stroke="white" stroke-width="3.2" stroke-linecap="round" stroke-linejoin="round"/>
</svg>
