<svg width="16" height="18" viewBox="0 0 16 18" fill="none" xmlns="http://www.w3.org/2000/svg">
<path d="M5.15833 10.0917L10.85 13.4083M10.8417 4.25833L5.15833 7.575M15.5 3C15.5 4.38071 14.3807 5.5 13 5.5C11.6193 5.5 10.5 4.38071 10.5 3C10.5 1.61929 11.6193 0.5 13 0.5C14.3807 0.5 15.5 1.61929 15.5 3ZM5.5 8.83333C5.5 10.214 4.38071 11.3333 3 11.3333C1.61929 11.3333 0.5 10.214 0.5 8.83333C0.5 7.45262 1.61929 6.33333 3 6.33333C4.38071 6.33333 5.5 7.45262 5.5 8.83333ZM15.5 14.6667C15.5 16.0474 14.3807 17.1667 13 17.1667C11.6193 17.1667 10.5 16.0474 10.5 14.6667C10.5 13.286 11.6193 12.1667 13 12.1667C14.3807 12.1667 15.5 13.286 15.5 14.6667Z" stroke="#121633" stroke-linecap="round" stroke-linejoin="round"/>
</svg>
