<svg width="28" height="28" viewBox="0 0 28 28" fill="none" xmlns="http://www.w3.org/2000/svg">
<path opacity="0.12" d="M2.33398 11.4334C2.33398 9.47319 2.33398 8.4931 2.71546 7.74441C3.05102 7.08584 3.58645 6.55041 4.24502 6.21485C4.99371 5.83337 5.9738 5.83337 7.93398 5.83337H14.234C16.1942 5.83337 17.1743 5.83337 17.923 6.21485C18.5815 6.55041 19.1169 7.08584 19.4525 7.74441C19.834 8.4931 19.834 9.47319 19.834 11.4334V16.5667C19.834 18.5269 19.834 19.507 19.4525 20.2557C19.1169 20.9142 18.5815 21.4497 17.923 21.7852C17.1743 22.1667 16.1942 22.1667 14.234 22.1667H7.93398C5.9738 22.1667 4.99371 22.1667 4.24502 21.7852C3.58645 21.4497 3.05102 20.9142 2.71546 20.2557C2.33398 19.507 2.33398 18.5269 2.33398 16.5667V11.4334Z" fill="#818097" stroke="black" stroke-width="1.60417" stroke-linecap="round" stroke-linejoin="round"/>
<path d="M25.6673 10.42C25.6673 9.71319 25.6673 9.3598 25.5276 9.19615C25.4063 9.05416 25.2244 8.97881 25.0382 8.99346C24.8237 9.01035 24.5738 9.26023 24.074 9.76001L19.834 14L24.074 18.2401C24.5738 18.7398 24.8237 18.9897 25.0382 19.0066C25.2244 19.0213 25.4063 18.9459 25.5276 18.8039C25.6673 18.6403 25.6673 18.2869 25.6673 17.5801V10.42Z" stroke="#818097" stroke-width="1.5" stroke-linecap="round" stroke-linejoin="round"/>
<path d="M2.33398 11.4334C2.33398 9.47319 2.33398 8.4931 2.71546 7.74441C3.05102 7.08584 3.58645 6.55041 4.24502 6.21485C4.99371 5.83337 5.9738 5.83337 7.93398 5.83337H14.234C16.1942 5.83337 17.1743 5.83337 17.923 6.21485C18.5815 6.55041 19.117 7.08584 19.4525 7.74441C19.834 8.4931 19.834 9.47319 19.834 11.4334V16.5667C19.834 18.5269 19.834 19.507 19.4525 20.2557C19.117 20.9142 18.5815 21.4497 17.923 21.7852C17.1743 22.1667 16.1942 22.1667 14.234 22.1667H7.93398C5.9738 22.1667 4.99371 22.1667 4.24502 21.7852C3.58645 21.4497 3.05102 20.9142 2.71546 20.2557C2.33398 19.507 2.33398 18.5269 2.33398 16.5667V11.4334Z" stroke="#818097" stroke-width="1.5" stroke-linecap="round" stroke-linejoin="round"/>
</svg>
