<svg xmlns="http://www.w3.org/2000/svg" fill="none" viewBox="0 0 16 16">
    <path fill="currentColor" fill-rule="evenodd" d="M13.333 8c0 2.945-2.388 5.333-5.333 5.333-2.946 0-5.333-2.388-5.333-5.333 0-2.946 2.387-5.333 5.333-5.333 2.945 0 5.333 2.387 5.333 5.333zm1.334 0c0 3.682-2.985 6.667-6.667 6.667S1.333 11.682 1.333 8 4.318 1.333 8 1.333 14.667 4.318 14.667 8zm-6-3.333C8.667 4.298 8.368 4 8 4c-.368 0-.667.298-.667.667V8c0 .21.1.407.267.533l2.667 2c.294.221.712.162.933-.133.22-.295.161-.712-.133-.933l-2.4-1.8v-3z" clip-rule="evenodd"/>
</svg>
