<svg xmlns="http://www.w3.org/2000/svg" fill="none" viewBox="0 0 16 16">
    <path fill="currentColor" fill-rule="evenodd" d="M3.062 3.762C3.926 2.898 5.456 2 7.333 2c1.873 0 3.37.86 4.238 1.729.726.725 1.475 1.919 1.697 3.394l.26-.261c.26-.26.683-.26.943 0 .26.26.26.682 0 .943l-1.333 1.333c-.24.24-.623.261-.888.05l-1.666-1.334c-.288-.23-.335-.65-.105-.937.23-.288.65-.334.937-.104l.518.413c-.191-1.106-.761-2.01-1.305-2.555-.663-.662-1.835-1.338-3.296-1.338-1.456 0-2.662.705-3.328 1.372C3.342 5.367 2.667 6.539 2.667 8c0 1.456.704 2.662 1.371 3.329.662.662 1.834 1.338 3.295 1.338.368 0 .667.298.667.666 0 .368-.299.667-.667.667-1.872 0-3.37-.86-4.238-1.729C2.231 11.407 1.333 9.877 1.333 8c0-1.872.86-3.37 1.729-4.238zm4.271 1.905c0-.369-.298-.667-.666-.667C6.298 5 6 5.298 6 5.667v2.916c0 .193.083.375.228.502l2 1.75c.277.242.698.214.94-.063.243-.277.215-.698-.062-.94L7.333 8.28V5.667z" clip-rule="evenodd"/>
</svg>
