<svg xmlns="http://www.w3.org/2000/svg" fill="none" viewBox="0 0 16 16">
    <path fill="currentColor" fill-rule="evenodd" d="M4.667 10c0 .54.324 1.025.823 1.232.498.206 1.071.092 1.453-.29l.39-.39v1.357c0 .92.746 1.667 1.667 1.667h.904l.685.694c.38.385.955.502 1.456.297.424-.174.723-.551.805-.991H13c.92 0 1.667-.746 1.667-1.667V9.667C14.667 8.747 13.92 8 13 8h-.447c.073-.209.114-.433.114-.667v-4c0-1.104-.896-2-2-2H3.333c-1.104 0-2 .896-2 2v4c0 1.105.896 2 2 2h1.334V10zm6-2c.368 0 .666-.298.666-.667v-4c0-.368-.298-.666-.666-.666H3.333c-.368 0-.666.298-.666.666v4c0 .369.298.667.666.667h2c.213 0 .403.1.525.256.09.113.142.256.142.41V10l1.333-1.333.472-.472C7.93 8.07 8.099 8 8.276 8h2.391zM9 9.333c-.184 0-.333.15-.333.334v2.242c0 .184.149.333.333.333h1.322c.09 0 .175.036.237.1l.232.234.747.757v-.757c0-.184.15-.334.334-.334H13c.184 0 .333-.149.333-.333V9.667c0-.184-.149-.334-.333-.334H9z" clip-rule="evenodd"/>
    <path fill="currentColor" d="M8.334 4h-1v-.333c0-.089-.035-.173-.098-.236-.062-.063-.147-.098-.236-.098-.088 0-.173.035-.235.098-.063.063-.098.147-.098.236V4h-1c-.089 0-.174.035-.236.098-.063.062-.098.147-.098.236 0 .088.035.173.098.235.062.063.147.098.236.098H7.63c-.1.436-.318.835-.63 1.154-.102-.105-.195-.216-.28-.334-.053-.067-.13-.112-.214-.125-.084-.013-.17.007-.24.056-.07.048-.12.122-.137.206-.017.084-.002.17.043.243.102.146.213.284.334.414-.21.163-.433.308-.667.433-.072.044-.125.113-.148.194-.024.08-.016.167.022.242.038.075.103.133.182.163.08.029.166.027.244-.005.306-.162.594-.354.86-.574.264.217.549.405.85.564.078.032.165.034.244.005.08-.03.144-.088.182-.163.038-.075.046-.161.023-.242-.023-.081-.076-.15-.148-.194-.234-.124-.457-.268-.667-.43.434-.438.723-.999.827-1.607.088.003.174-.029.239-.09.065-.06.103-.143.106-.232.003-.088-.03-.174-.09-.239S8.422 4.003 8.334 4zM10.823 10.088c-.011-.026-.033-.048-.06-.064-.029-.016-.062-.024-.096-.024s-.068.008-.096.024c-.028.016-.05.038-.06.064l-.5 1.065c-.016.033-.014.07.004.102.019.032.052.058.094.07.041.012.087.011.127-.004.04-.014.072-.041.088-.075l.083-.18h.52l.083.18c.015.034.046.06.087.075.04.015.086.016.128.004.041-.012.075-.037.093-.07.019-.032.02-.069.005-.102l-.5-1.065zm-.291.712l.135-.286.135.286h-.27z"/>
</svg>
