<svg xmlns="http://www.w3.org/2000/svg" fill="none" viewBox="0 0 16 16">
    <path fill="currentColor" fill-rule="evenodd" d="M3.327 2c0-.368-.297-.667-.664-.667C2.297 1.333 2 1.632 2 2v12c0 .368.297.667.663.667.367 0 .664-.299.664-.667V9.333h7.466c.566 0 1.105-.242 1.483-.666L13.493 7.3c.637-.715.678-1.784.099-2.547l-.988-1.3c-.376-.495-.961-.786-1.582-.786H3.327V2zm9.177 4.41c.212-.238.226-.594.033-.848l-.987-1.3c-.126-.165-.32-.262-.528-.262H3.327v4h7.466c.188 0 .368-.08.494-.222l1.217-1.367z" clip-rule="evenodd"/>
</svg>
