<svg xmlns="http://www.w3.org/2000/svg" fill="none" viewBox="0 0 16 16">
    <path fill="currentColor" fill-rule="evenodd" d="M8 1.333c-1.841 0-3.333 1.493-3.333 3.334 0 1.612 1.145 2.957 2.666 3.266v3.4c0 .368.299.667.667.667.368 0 .667-.299.667-.667v-3.4c1.521-.309 2.666-1.654 2.666-3.266 0-1.841-1.492-3.334-3.333-3.334zm2 3.334c0 1.104-.896 2-2 2-1.105 0-2-.896-2-2 0-1.105.895-2 2-2 1.104 0 2 .895 2 2zm-7.077 6.312c.75-.215 1.714-.313 2.653-.312.335 0 .606.298.606.667 0 .368-.272.666-.606.666-.88 0-1.733.093-2.347.269-.296.085-.498.178-.617.262.04.03.1.07.188.115.303.156.767.292 1.355.4 1.162.214 2.64.287 3.845.287 1.206 0 2.683-.074 3.845-.287.587-.108 1.052-.244 1.355-.4.093-.048.154-.088.194-.12-.034-.023-.081-.051-.148-.084-.265-.13-.655-.23-1.092-.301-.428-.07-.862-.105-1.191-.123-.164-.01-.3-.014-.395-.016L10.459 12h-.034c-.336 0-.607-.298-.607-.667 0-.368.272-.666.607-.666v.666-.666h.046c.029 0 .07 0 .122.002.104.002.252.007.43.017.351.019.827.057 1.308.136.471.077.99.198 1.408.402.368.18.928.563.928 1.294 0 .723-.549 1.127-.953 1.336-.453.233-1.046.393-1.67.507-1.257.231-2.81.306-4.044.306-1.234 0-2.787-.075-4.045-.306-.623-.114-1.216-.274-1.669-.507-.405-.208-.953-.613-.953-1.335 0-.516.299-.867.578-1.076.281-.211.641-.358 1.012-.464zm10.549 1.617l-.005-.008.004.007zm-.008-.138l.002-.004-.002.004zm-10.93-.004l.002.005-.003-.005zm-.006.149l-.004.005s0-.002.004-.005z" clip-rule="evenodd"/>
</svg>
