<svg xmlns="http://www.w3.org/2000/svg" fill="none" viewBox="0 0 16 16">
    <path fill="currentColor" fill-rule="evenodd" d="M8 8c-1.105 0-2 .895-2 2v2.667c0 .368-.299.666-.667.666-.368 0-.666-.298-.666-.666V9.976c-.11.016-.22.024-.334.024-.073 0-.146-.003-.217-.01-.038.007-.077.01-.116.01h-.286c-.578 0-1.047.469-1.047 1.048V12c0 .368-.299.667-.667.667-.368 0-.667-.299-.667-.667v-.952c0-.848.443-1.592 1.11-2.014C2.164 8.65 2 8.178 2 7.667c0-1.289 1.045-2.334 2.333-2.334.362 0 .704.083 1.01.23-.006-.076-.01-.152-.01-.23 0-1.472 1.194-2.666 2.667-2.666 1.473 0 2.667 1.194 2.667 2.666 0 .078-.004.154-.01.23.305-.147.648-.23 1.01-.23C12.955 5.333 14 6.378 14 7.667c0 .51-.164.983-.443 1.367.667.422 1.11 1.166 1.11 2.014V12c0 .368-.299.667-.667.667-.368 0-.667-.299-.667-.667v-.952c0-.579-.469-1.048-1.047-1.048H12c-.04 0-.078-.003-.116-.01-.072.007-.144.01-.217.01-.114 0-.225-.008-.334-.024v2.691c0 .368-.298.666-.666.666-.369 0-.667-.298-.667-.666V10c0-1.105-.896-2-2-2zm0-1.333c-.736 0-1.333-.597-1.333-1.334C6.667 4.597 7.264 4 8 4s1.333.597 1.333 1.333c0 .737-.597 1.334-1.333 1.334zm-3.667 0c-.552 0-1 .447-1 1 0 .552.448 1 1 1 .553 0 1-.448 1-1 0-.553-.447-1-1-1zm7.334 0c-.553 0-1 .447-1 1 0 .552.447 1 1 1 .552 0 1-.448 1-1 0-.553-.448-1-1-1z" clip-rule="evenodd"/>
</svg>
