<svg id="Capa_1" enable-background="new 0 0 512 512" height="512" viewBox="0 0 512 512" width="512" xmlns="http://www.w3.org/2000/svg"><g><path d="m437.02 74.98c-48.353-48.351-112.64-74.98-181.02-74.98s-132.667 26.629-181.02 74.98c-48.351 48.353-74.98 112.64-74.98 181.02 0 65.823 24.932 128.368 70.204 176.114 2.855 3.011 7.611 3.138 10.624.282 3.011-2.856 3.138-7.612.282-10.624-42.613-44.94-66.081-103.812-66.081-165.772 0-64.366 25.065-124.879 70.579-170.392 45.513-45.513 106.026-70.579 170.392-70.579s124.879 25.065 170.392 70.579c45.514 45.513 70.579 106.026 70.579 170.392s-25.065 124.879-70.579 170.392c-45.513 45.513-106.026 70.579-170.392 70.579-55.847 0-110.282-19.541-153.276-55.023-3.202-2.641-7.938-2.188-10.579 1.013s-2.188 7.937 1.013 10.579c45.68 37.698 103.512 58.46 162.842 58.46 68.38 0 132.667-26.629 181.02-74.98 48.351-48.353 74.98-112.64 74.98-181.02s-26.629-132.667-74.98-181.02z"/><path d="m166.472 55.033c-79.231 35.348-130.427 114.232-130.427 200.967 0 58.752 22.879 113.987 64.423 155.531s96.779 64.423 155.531 64.423c36.727 0 73.08-9.234 105.129-26.705 3.644-1.986 4.988-6.55 3.001-10.195-1.985-3.643-6.548-4.988-10.195-3.001-29.848 16.271-63.714 24.871-97.935 24.871-112.996 0-204.925-91.929-204.925-204.925 0-80.811 47.7-154.308 121.52-187.242 3.79-1.691 5.492-6.134 3.801-9.924-1.69-3.789-6.131-5.491-9.923-3.8z"/><path d="m383.112 433.75c1.565 0 3.145-.488 4.495-1.497 26.822-20.06 49.05-46.379 64.281-76.114 15.97-31.179 24.067-64.871 24.067-100.139 0-58.752-22.879-113.987-64.423-155.531-41.545-41.544-96.78-64.424-155.532-64.424-20.456 0-40.713 2.808-60.209 8.345-3.993 1.134-6.31 5.29-5.176 9.282 1.135 3.993 5.292 6.309 9.282 5.176 18.161-5.158 37.037-7.773 56.104-7.773 112.996 0 204.925 91.929 204.925 204.925 0 32.863-7.542 64.25-22.415 93.288-14.192 27.707-34.906 52.234-59.905 70.93-3.324 2.486-4.003 7.195-1.518 10.519 1.476 1.973 3.735 3.013 6.024 3.013z"/><path d="m261.086 218.122c-1.417-3.443-4.737-5.666-8.459-5.666-.003 0-.007 0-.01 0-3.727.004-7.047 2.236-8.457 5.685-.023.056-.045.113-.067.17l-27.058 71.044c-1.477 3.879.469 8.22 4.348 9.697 3.881 1.479 8.22-.47 9.697-4.348l4.895-12.854h33.1l4.843 12.832c1.462 3.922 5.902 5.835 9.684 4.378 3.883-1.465 5.843-5.801 4.378-9.684l-26.812-71.047c-.027-.069-.053-.138-.082-.207zm-19.387 48.699 10.902-28.624 10.802 28.624z"/><path d="m122.457 284.511c-7.576 0-14.882-3.07-19.542-8.213-2.787-3.074-7.539-3.309-10.615-.522-3.075 2.787-3.309 7.54-.522 10.615 7.462 8.233 18.931 13.149 30.679 13.149 14.228 0 26.633-9.377 28.853-21.811 1.687-9.452-2.679-21.828-19.995-28.215-9.091-3.353-17.537-7.011-19.87-8.034-1.909-1.451-2.829-3.73-2.475-6.196.223-1.555 1.33-5.349 6.778-6.99 10.943-3.297 20.938 4.643 21.205 4.858 3.177 2.642 7.895 2.224 10.557-.943 2.67-3.177 2.26-7.918-.917-10.588-.655-.55-16.261-13.419-35.18-7.718-9.385 2.827-16.022 10.201-17.321 19.245-1.267 8.771 2.823 17.521 10.596 21.778.415.185 10.294 4.582 21.424 8.688 7.423 2.738 11.214 6.919 10.401 11.473-.825 4.633-6.309 9.424-14.056 9.424z"/><path d="m162.02 219.971c0 4.15 3.364 7.515 7.515 7.515h12.302v64.544c0 4.15 3.364 7.515 7.515 7.515 4.15 0 7.515-3.364 7.515-7.515v-64.544h12.463c4.15 0 7.515-3.365 7.515-7.515s-3.365-7.515-7.515-7.515h-39.795c-4.151 0-7.515 3.364-7.515 7.515z"/><path d="m392.026 299.544c4.15 0 7.515-3.364 7.515-7.515v-64.544h12.463c4.15 0 7.515-3.365 7.515-7.515s-3.365-7.515-7.515-7.515h-39.795c-4.15 0-7.515 3.364-7.515 7.515 0 4.15 3.365 7.515 7.515 7.515h12.302v64.544c0 4.151 3.365 7.515 7.515 7.515z"/><path d="m353.333 238.698c0-14.47-12.248-26.242-27.301-26.242h-19.149c-.004 0-.008 0-.012 0s-.008 0-.012 0c-4.15 0-7.515 3.364-7.515 7.515v72.059c0 4.15 3.365 7.515 7.515 7.515s7.515-3.364 7.515-7.515v-24.353l25.803 29.318c2.75 3.124 7.502 3.41 10.606.676 3.115-2.742 3.418-7.49.676-10.606l-19.941-22.657c12.434-2.449 21.815-13.046 21.815-25.71zm-27.301 11.212c-2.667 0-7.441.021-11.544.042-.022-4.023-.043-8.67-.043-11.254 0-2.184-.012-7.005-.025-11.213h11.611c6.652 0 12.272 5.135 12.272 11.213.001 6.078-5.619 11.212-12.271 11.212z"/></g></svg>