<svg fill="currentColor" height="18" viewBox="0 0 24 24" width="512" xmlns="http://www.w3.org/2000/svg">
    <g clip-rule="evenodd" fill="currentColor" fill-rule="evenodd">
        <path d="m4.34997 2.00009c-1.27229 0-2.35 1.07772-2.35 2.35v4.5c0 1.27231 1.07771 2.35001 2.35 2.35001h4.5c1.27233 0 2.35003-1.0777 2.35003-2.35001v-4.5c0-1.27228-1.0777-2.35-2.35003-2.35zm-.35 2.35c0-.16771.18228-.35.35-.35h4.5c.16772 0 .35.18229.35.35v4.5c0 .16772-.18228.35-.35.35h-4.5c-.16772 0-.35-.18228-.35-.35z"/><path d="m15.15 2.00009c-1.2723 0-2.35 1.07772-2.35 2.35v4.5c0 1.27231 1.0777 2.35001 2.35 2.35001h4.5c1.2723 0 2.35-1.0777 2.35-2.35001v-4.5c0-1.27228-1.0777-2.35-2.35-2.35zm-.35 2.35c0-.16771.1823-.35.35-.35h4.5c.1677 0 .35.18229.35.35v4.5c0 .16772-.1823.35-.35.35h-4.5c-.1677 0-.35-.18228-.35-.35z"/><path d="m1.99997 15.1499c0-1.2723 1.07771-2.35 2.35-2.35h4.5c1.27233 0 2.35003 1.0777 2.35003 2.35v4.5c0 1.2723-1.0777 2.35-2.35003 2.35h-4.5c-1.27229 0-2.35-1.0777-2.35-2.35zm2.35-.35c-.16772 0-.35.1823-.35.35v4.5c0 .1677.18228.35.35.35h4.5c.16772 0 .35-.1823.35-.35v-4.5c0-.1677-.18228-.35-.35-.35z"/><path d="m15.15 12.7999c-1.2723 0-2.35 1.0777-2.35 2.35v4.5c0 1.2723 1.0777 2.35 2.35 2.35h4.5c1.2723 0 2.35-1.0777 2.35-2.35v-4.5c0-1.2723-1.0777-2.35-2.35-2.35zm-.35 2.35c0-.1677.1823-.35.35-.35h4.5c.1677 0 .35.1823.35.35v4.5c0 .1677-.1823.35-.35.35h-4.5c-.1677 0-.35-.1823-.35-.35z"/></g></svg>